<svg xmlns="http://www.w3.org/2000/svg" width="1600" height="1000" viewBox="0 0 1600 1000">
  <defs>
    <linearGradient id="bg" x1="0" y1="0" x2="1" y2="1">
      <stop offset="0" stop-color="#0a1a1a"/>
      <stop offset="1" stop-color="#1a2a2a"/>
    </linearGradient>
    <radialGradient id="glow" cx="0.5" cy="0.4" r="0.7">
      <stop offset="0" stop-color="#ffb084" stop-opacity="0.18"/>
      <stop offset="1" stop-color="#ffb084" stop-opacity="0"/>
    </radialGradient>
  </defs>
  <rect width="1600" height="1000" fill="url(#bg)"/>
  <rect width="1600" height="1000" fill="url(#glow)"/>
  <g stroke="#ffb084" stroke-opacity="0.06">
    <line x1="0" y1="0" x2="1600" y2="0"/><line x1="0" y1="120" x2="1600" y2="120"/><line x1="0" y1="240" x2="1600" y2="240"/><line x1="0" y1="360" x2="1600" y2="360"/><line x1="0" y1="480" x2="1600" y2="480"/><line x1="0" y1="600" x2="1600" y2="600"/><line x1="0" y1="720" x2="1600" y2="720"/><line x1="0" y1="840" x2="1600" y2="840"/><line x1="0" y1="960" x2="1600" y2="960"/><line x1="0" y1="1080" x2="1600" y2="1080"/><line x1="0" y1="1200" x2="1600" y2="1200"/><line x1="0" y1="1320" x2="1600" y2="1320"/><line x1="0" y1="1440" x2="1600" y2="1440"/><line x1="0" y1="1560" x2="1600" y2="1560"/>
    <line x1="0" y1="0" x2="0" y2="1000"/><line x1="128" y1="0" x2="128" y2="1000"/><line x1="256" y1="0" x2="256" y2="1000"/><line x1="384" y1="0" x2="384" y2="1000"/><line x1="512" y1="0" x2="512" y2="1000"/><line x1="640" y1="0" x2="640" y2="1000"/><line x1="768" y1="0" x2="768" y2="1000"/><line x1="896" y1="0" x2="896" y2="1000"/><line x1="1024" y1="0" x2="1024" y2="1000"/><line x1="1152" y1="0" x2="1152" y2="1000"/><line x1="1280" y1="0" x2="1280" y2="1000"/><line x1="1408" y1="0" x2="1408" y2="1000"/><line x1="1536" y1="0" x2="1536" y2="1000"/><line x1="1664" y1="0" x2="1664" y2="1000"/>
  </g>
  <circle cx="285" cy="195" r="4" fill="#ffb084" opacity="0.35"/><circle cx="290" cy="200" r="5" fill="#ffb084" opacity="0.35"/><circle cx="295" cy="205" r="6" fill="#ffb084" opacity="0.35"/><circle cx="300" cy="210" r="4" fill="#ffb084" opacity="0.35"/><circle cx="305" cy="215" r="5" fill="#ffb084" opacity="0.35"/><circle cx="310" cy="220" r="6" fill="#ffb084" opacity="0.35"/>
  <rect x="80" y="80" width="1440" height="840" rx="24" fill="#0a1a1a" fill-opacity="0.55" stroke="#ffb084" stroke-opacity="0.22"/>
  <circle cx="140" cy="140" r="10" fill="#6a6a6a"/>
  <circle cx="176" cy="140" r="10" fill="#9a9a9a"/>
  <circle cx="212" cy="140" r="10" fill="#c9c2b0"/>
  <rect x="120" y="210" width="400" height="24" rx="8" fill="#ffb084"/>
  <rect x="120" y="256" width="560" height="16" rx="6" fill="#e5e5e5" opacity="0.4"/>
  <rect x="120" y="290" width="420" height="16" rx="6" fill="#e5e5e5" opacity="0.25"/>
  <rect x="120" y="355" width="86" height="115" rx="8" fill="#ffb084" opacity="0.41000000000000003"/><rect x="270" y="410" width="86" height="60" rx="8" fill="#ffb084" opacity="0.5700000000000001"/><rect x="420" y="345" width="86" height="125" rx="8" fill="#ffb084" opacity="0.73"/><rect x="570" y="400" width="86" height="70" rx="8" fill="#ffb084" opacity="0.25"/><rect x="720" y="335" width="86" height="135" rx="8" fill="#ffb084" opacity="0.41000000000000003"/>
  <rect x="120" y="640" width="160" height="120" rx="14" fill="#ffb084" opacity="0.9"/>
  <rect x="300" y="660" width="120" height="100" rx="14" fill="#e5e5e5" opacity="0.12"/>
  <rect x="440" y="680" width="120" height="80" rx="14" fill="#e5e5e5" opacity="0.08"/>
  <text x="120" y="860" font-family="Inter, sans-serif" font-size="44" font-weight="700" fill="#fffaf0">Gym Member Registration</text>
  <text x="120" y="902" font-family="'JetBrains Mono', monospace" font-size="20" fill="#ffb084">ABDIRAHMAN-GARANE / PORTFOLIO</text>
</svg>